<mxfile host="app.diagrams.net" modified="2024-05-13T15:45:50.429Z" agent="Mozilla/5.0 (Windows NT 10.0; Win64; x64) AppleWebKit/537.36 (KHTML, like Gecko) Chrome/124.0.0.0 Safari/537.36 Edg/124.0.0.0" version="24.4.0" etag="kzNFd_l7jAl60o0_wGg5" type="github">
  <diagram name="Page-1" id="Q0hUyORucb4tCizRKxW4">
    <mxGraphModel>
      <root>
        <mxCell id="0" />
        <mxCell id="1" parent="0" />
      </root>
    </mxGraphModel>
  </diagram>
</mxfile>
